# xmcd
#
# Track frame offsets:
#	150
#	11414
#	25911
#	41773
#	57635
#	71213
#	84066
#	96502
#	110135
#	124214
#	139296
#	153318
#	168016
#	183431
#	196145
#	211451
#	224576
#	237930
#	251647
#	265391
#	277687
#	291794
#
# Disc length: 4040 seconds
#
# Revision: 1
# Processed by: cddbd v1.4PL0 Copyright (c) Steve Scherf et al.
# Submitted via: audiograbber 1.81.02
#
DISCID=4c0fc616
DTITLE=Claude Francois - 10 ans  de  chansons cd 5
DYEAR=1900
DGENRE=Blues
TTITLE0=Tout écalte tout explose
TTITLE1=Un monde de musique
TTITLE2=Rêveries
TTITLE3=Une petite fille aux yeux rouge
TTITLE4=Un jour ou l'autre
TTITLE5=Le temps que j'arrive à Marseille
TTITLE6=Les moulins de mon coeur
TTITLE7=Cherche
TTITLE8=Mon coeur est une maison vide
TTITLE9=Jeu dangereux
TTITLE10=Comme les autres
TTITLE11=Ou tu veux quand tu veux
TTITLE12=Roule
TTITLE13=Chaque jour à la même heure
TTITLE14=Même si demain
TTITLE15=Petit jésus
TTITLE16=Les ballons rouges
TTITLE17=Douce Candy
TTITLE18=Menteur ou cruel
TTITLE19=Tu sera toute à moi
TTITLE20=Vivre que c'est bon
TTITLE21=Le pantin
EXTD=
EXTT0=
EXTT1=
EXTT2=
EXTT3=
EXTT4=
EXTT5=
EXTT6=
EXTT7=
EXTT8=
EXTT9=
EXTT10=
EXTT11=
EXTT12=
EXTT13=
EXTT14=
EXTT15=
EXTT16=
EXTT17=
EXTT18=
EXTT19=
EXTT20=
EXTT21=
PLAYORDER=
